<svg xmlns="http://www.w3.org/2000/svg" viewBox="0 0 88.16 88.16"><defs><style>.cls-1{fill:#f9f6f1;}.cls-2{fill:#403d39;}</style></defs><title>iconmaowhite</title><g id="Layer_2" data-name="Layer 2"><g id="Layer_1-2" data-name="Layer 1"><path class="cls-1" d="M44.08,85.72A41.63,41.63,0,0,1,14.64,14.64,41.62,41.62,0,0,1,85.72,44.08,41.6,41.6,0,0,1,44.08,85.72Z"/><path class="cls-2" d="M44.08,4.88a39.2,39.2,0,1,0,39.2,39.2,39.2,39.2,0,0,0-39.2-39.2m0-4.88A44.06,44.06,0,0,1,75.25,75.25,44.08,44.08,0,1,1,26.92,3.47,43.82,43.82,0,0,1,44.08,0Z"/><g id="Asset_3" data-name="Asset 3"><path id="Path_1" data-name="Path 1" class="cls-2" d="M66.67,27.84A5.19,5.19,0,0,0,61,29.19l-4.48,4.95L48.32,17.37a5.2,5.2,0,0,0-9.34,0L30.82,34.14l-4.47-4.95a5.19,5.19,0,0,0-9,3.49V63.15a5.19,5.19,0,0,0,9.86,2.27L33.45,52.5l6.35,7a5.19,5.19,0,0,0,7.33.37,4.17,4.17,0,0,0,.36-.37l6.35-7,6.29,12.92A5.19,5.19,0,0,0,70,63.15V32.68a5.18,5.18,0,0,0-3.32-4.84ZM41,18.34A3,3,0,0,1,45,17a2.94,2.94,0,0,1,1.37,1.37l8.54,17.57-4.29,4.75L43.65,26.42,36.74,40.65l-4.3-4.73ZM67.77,63.15a3,3,0,0,1-5.64,1.3L55.39,50.58l4.3-4.72,2.14,4.4V40.37L45.85,58a3,3,0,0,1-4.19.2l-.21-.2-16-17.65v9.89L27.57,46l4.28,4.75L25.17,64.45a3,3,0,0,1-2.67,1.67,3.61,3.61,0,0,1-.66-.08,3,3,0,0,1-2.3-2.89V32.67a3,3,0,0,1,5.16-2l6.7,7.39L43.66,51.61l19-20.92a3,3,0,0,1,5.16,2Z"/></g></g></g></svg>