<svg xmlns="http://www.w3.org/2000/svg" viewBox="0 0 186.95 90.26"><defs><style>.cls-1{isolation:isolate;}.cls-2{fill:#403d39;}.cls-3{fill:#fbfcf8;}.cls-4{fill:#f9f6f1;}</style></defs><title>logomao</title><g id="Layer_2" data-name="Layer 2"><g id="Layer_1-2" data-name="Layer 1"><g id="logomao"><g id="MAO_DESIGN_STUDIO" data-name="MAO DESIGN STUDIO" class="cls-1"><g class="cls-1"><path class="cls-2" d="M129.51,37.89h-6.24V22L116.21,33.6h-.7L108.45,22V37.89h-6.24V10.59h6.24l7.41,12.13,7.41-12.13h6.24Z"/><path class="cls-2" d="M150.18,33.6H140l-1.37,4.29h-6.82l9.28-27.3h8l9.29,27.3h-6.83Zm-1.88-5.85-3.19-10-3.2,10Z"/><path class="cls-2" d="M158.56,24.24a14.2,14.2,0,1,1,28.39,0,14.2,14.2,0,0,1-28.39,0Zm22.15,0a8,8,0,1,0-15.91,0,8,8,0,1,0,15.91,0Z"/></g><g class="cls-1"><path class="cls-2" d="M116.86,51.14c0,4.82-3.42,8.75-8.25,8.75H102V42.39h6.57C113.44,42.39,116.86,46.32,116.86,51.14Zm-1.3,0c0-4.15-2.82-7.5-7-7.5h-5.24v15h5.24C112.74,58.64,115.56,55.29,115.56,51.14Z"/><path class="cls-2" d="M130.29,58.64v1.25H120.21V42.39h10v1.25h-8.62v6.8h8v1.25h-8v7Z"/><path class="cls-2" d="M132.49,56l1.15-.68c.6,2.1,2.37,3.53,5.25,3.53s4.4-1.5,4.4-3.5-1.85-2.9-4.53-3.75c-2.92-1-5.55-1.77-5.55-4.82,0-2.88,2.33-4.7,5.3-4.7a5.88,5.88,0,0,1,5.63,3.67l-1.13.63a4.6,4.6,0,0,0-4.5-3c-2.42,0-3.95,1.43-3.95,3.38s1.78,2.75,4.28,3.57c3.1,1,5.8,2,5.8,5s-2.28,4.8-5.75,4.8C135.61,60.16,133.29,58.51,132.49,56Z"/><path class="cls-2" d="M149.09,42.39v17.5h-1.33V42.39Z"/><path class="cls-2" d="M170.09,52.41c0,4.23-3.23,7.75-8.45,7.75a9,9,0,1,1-.1-18,8.62,8.62,0,0,1,7.52,4.22l-1.17.7a7.11,7.11,0,0,0-6.35-3.65,7.75,7.75,0,1,0,.1,15.5c4.25,0,6.82-2.63,7.1-5.9h-7.43V51.74h8.78Z"/><path class="cls-2" d="M186.24,42.39v17.5h-1.18l-10.32-15v15h-1.33V42.39h1.15l10.35,15v-15Z"/></g><g class="cls-1"><path class="cls-2" d="M101,78l1.15-.68c.6,2.1,2.37,3.53,5.25,3.53s4.4-1.5,4.4-3.5-1.85-2.9-4.53-3.75c-2.92-1-5.54-1.77-5.54-4.82,0-2.88,2.32-4.7,5.29-4.7a5.88,5.88,0,0,1,5.63,3.67l-1.13.63a4.6,4.6,0,0,0-4.5-3c-2.42,0-3.94,1.43-3.94,3.38,0,2.1,1.77,2.75,4.27,3.57,3.1,1,5.8,2,5.8,5s-2.28,4.8-5.75,4.8C104.12,82.16,101.79,80.51,101,78Z"/><path class="cls-2" d="M126.51,65.64H121V81.89h-1.34V65.64h-5.5V64.39h12.34Z"/><path class="cls-2" d="M129,76V64.39h1.33V76c0,2.85,1.77,4.85,5.07,4.85s5.1-2,5.1-4.85V64.39h1.33V76c0,3.7-2.58,6.12-6.43,6.12S129,79.74,129,76Z"/><path class="cls-2" d="M160.76,73.14c0,4.82-3.42,8.75-8.25,8.75h-6.57V64.39h6.57C157.34,64.39,160.76,68.32,160.76,73.14Zm-1.3,0c0-4.15-2.82-7.5-7-7.5h-5.25v15h5.25C156.64,80.64,159.46,77.29,159.46,73.14Z"/><path class="cls-2" d="M165.44,64.39v17.5h-1.33V64.39Z"/><path class="cls-2" d="M168.79,73.14a9,9,0,1,1,9,9A9,9,0,0,1,168.79,73.14Zm16.72,0a7.7,7.7,0,1,0-7.7,7.75A7.66,7.66,0,0,0,185.51,73.14Z"/></g></g><g id="Group_1" data-name="Group 1"><g id="Path_4" data-name="Path 4"><path class="cls-2" d="M45.13,87.76A42.61,42.61,0,0,1,15,15,42.62,42.62,0,1,1,75.27,75.27,42.48,42.48,0,0,1,45.13,87.76Z"/><path class="cls-3" d="M45.13,5A40.13,40.13,0,1,0,85.26,45.13,40.13,40.13,0,0,0,45.13,5m0-5A45.15,45.15,0,0,1,86.71,62.7a45.15,45.15,0,0,1-83.16,0A45.12,45.12,0,0,1,45.13,0Z"/></g><g id="Asset_3" data-name="Asset 3"><path id="Path_1" data-name="Path 1" class="cls-4" d="M68.25,28.5a5.31,5.31,0,0,0-5.85,1.39L57.81,35,49.47,17.79a5.32,5.32,0,0,0-9.57,0L31.55,35,27,29.89a5.32,5.32,0,0,0-9.26,3.57v31.2A5.32,5.32,0,0,0,27.82,67l6.43-13.23,6.5,7.18a5.31,5.31,0,0,0,7.5.37,4.31,4.31,0,0,0,.37-.37l6.5-7.18L61.56,67a5.31,5.31,0,0,0,10.09-2.32V33.46a5.31,5.31,0,0,0-3.4-5ZM42,18.78a3,3,0,0,1,5.46,0l8.75,18-4.39,4.86L44.69,27.05,37.61,41.62l-4.4-4.84ZM69.38,64.65A3,3,0,0,1,63.61,66l-6.9-14.2L61.11,47l2.19,4.51V41.33L46.94,59.4a3,3,0,0,1-4.29.21l-.21-.21L26.07,41.33V51.46l2.15-4.41,4.39,4.85L25.77,66A3.05,3.05,0,0,1,23,67.69a3.25,3.25,0,0,1-.69-.08,3,3,0,0,1-2.35-3V33.45a3,3,0,0,1,3-3,3.08,3.08,0,0,1,2.25,1L32.14,39,44.7,52.83,64.1,31.42a3,3,0,0,1,4.29-.22,3.07,3.07,0,0,1,1,2.25Z"/></g></g></g></g></g></svg>