<?xml version="1.0" encoding="utf-8"?>
<!-- Generator: Adobe Illustrator 21.0.0, SVG Export Plug-In . SVG Version: 6.00 Build 0)  -->
<svg version="1.1" id="Layer_1" xmlns="http://www.w3.org/2000/svg" xmlns:xlink="http://www.w3.org/1999/xlink" x="0px" y="0px"
	 viewBox="0 0 256 256" style="enable-background:new 0 0 256 256;" xml:space="preserve">
<style type="text/css">
	.st0{fill:#55ACD5;}
	.st1{fill:#FDAD2C;}
	.st2{fill:#FFCD29;}
	.st3{fill:#ACDEF9;}
	.st4{fill:#EA4647;}
	.st5{fill:#6DCC6D;}
	.st6{fill:#231F20;}
</style>
<g id="Layer_26">
	<path class="st0" d="M240.8,26.6H100.6c-7,0-12.7,5.7-12.7,12.7v73.8h67.5c7,0,12.7,5.7,12.7,12.7v23.1h72.7
		c7,0,12.7-5.7,12.7-12.7c0,0,0,0,0,0V39.4C253.5,32.3,247.8,26.6,240.8,26.6z"/>
	<path class="st1" d="M15.2,113.1h140.2c7,0,12.7,5.7,12.7,12.7v96.8c0,7-5.7,12.7-12.7,12.7H15.2c-7,0-12.7-5.7-12.7-12.7v-96.8
		C2.5,118.8,8.2,113.1,15.2,113.1z"/>
	<path class="st2" d="M155.4,113.1H15.2c-3.8,0-7.4,1.7-9.8,4.6l67.7,63.3c6.8,6.6,17.6,6.6,24.4,0l67.7-63.3
		C162.8,114.8,159.2,113.1,155.4,113.1z"/>
	<path class="st2" d="M97.5,181.1L97.5,181.1c-6.1,6.7-16.5,7.2-23.3,1.1c-0.4-0.4-0.8-0.7-1.1-1.1l0,0l-4.7-4.4l-63,54
		c2.4,2.9,6,4.6,9.8,4.6h140.1c3.8,0,7.4-1.7,9.8-4.6l-63-54L97.5,181.1z"/>
	<path class="st3" d="M240.8,26.6H100.6c-3.8,0-7.4,1.7-9.8,4.6l67.7,63.3c6.8,6.6,17.6,6.6,24.4,0l67.7-63.3
		C248.2,28.3,244.6,26.6,240.8,26.6z"/>
	<path class="st3" d="M187.6,90.2l-4.7,4.4l0,0c-6.1,6.7-16.5,7.2-23.3,1.1c-0.4-0.4-0.8-0.7-1.1-1.1l0,0l-4.7-4.4l-26.7,22.9h28.2
		c7,0,12.7,5.7,12.7,12.7v23.1h72.7c3.8,0,7.4-1.7,9.8-4.6L187.6,90.2z"/>
	<path class="st2" d="M86.8,7.3H85V5.5C85,4.1,83.9,3,82.5,3S80,4.1,80,5.5v1.8h-1.8c-1.4,0-2.5,1.1-2.5,2.5s1.1,2.5,2.5,2.5
		c0,0,0,0,0,0H80v1.8c0,1.4,1.1,2.5,2.5,2.5s2.5-1.1,2.5-2.5v-1.8h1.8c1.4,0,2.5-1.1,2.5-2.5S88.2,7.3,86.8,7.3z"/>
	<path class="st4" d="M61.1,20c0-0.2-0.1-0.3-0.1-0.5c-0.1-0.1-0.1-0.3-0.2-0.4c-0.1-0.1-0.2-0.3-0.3-0.4c-1-0.9-2.5-0.9-3.5,0
		c-0.1,0.1-0.2,0.2-0.3,0.4c-0.2,0.3-0.3,0.6-0.4,0.9c-0.1,0.3-0.1,0.7,0,1c0,0.2,0.1,0.3,0.1,0.5c0.1,0.2,0.1,0.3,0.2,0.4
		c0.1,0.1,0.2,0.3,0.3,0.4c1,1,2.5,1,3.5,0c0,0,0,0,0,0c0.1-0.1,0.2-0.2,0.3-0.4c0.1-0.1,0.2-0.3,0.2-0.4c0.1-0.1,0.1-0.3,0.1-0.5
		C61.1,20.6,61.1,20.3,61.1,20z"/>
	<path class="st5" d="M195.1,250c0-0.2-0.1-0.3-0.1-0.5c-0.1-0.1-0.1-0.3-0.2-0.4c-0.1-0.1-0.2-0.3-0.3-0.4c-1-0.9-2.5-0.9-3.5,0
		c-0.1,0.1-0.2,0.2-0.3,0.4c-0.2,0.3-0.3,0.6-0.4,0.9c-0.1,0.3-0.1,0.7,0,1c0,0.2,0.1,0.3,0.1,0.5c0.1,0.2,0.1,0.3,0.2,0.4
		c0.1,0.1,0.2,0.3,0.3,0.4c1,1,2.5,1,3.5,0c0,0,0,0,0,0c0.1-0.1,0.2-0.2,0.3-0.4c0.1-0.1,0.2-0.3,0.2-0.4c0.1-0.1,0.1-0.3,0.1-0.5
		C195.1,250.7,195.1,250.3,195.1,250z"/>
	<path class="st0" d="M222.4,240.6c-3.3-0.6-5.9-3.2-6.6-6.6c0-0.1-0.1-0.1-0.2-0.1c-0.1,0-0.1,0.1-0.1,0.1
		c-0.6,3.3-3.2,5.9-6.6,6.6c-0.1,0-0.1,0.1-0.1,0.2c0,0.1,0.1,0.1,0.1,0.1c3.3,0.6,5.9,3.2,6.6,6.6c0,0.1,0.1,0.1,0.2,0.1
		c0.1,0,0.1-0.1,0.1-0.1c0.6-3.3,3.2-5.9,6.6-6.6c0.1,0,0.1-0.1,0.1-0.2C222.5,240.6,222.5,240.6,222.4,240.6z"/>
	<path d="M170.7,102c-5.2,0-10.3-2-14-5.7L89.1,33.1c-1-0.9-1.1-2.4-0.2-3.4c2.9-3.5,7.2-5.5,11.7-5.5h140.1c4.5,0,8.9,2,11.7,5.5
		c0.8,1,0.7,2.5-0.2,3.4l-67.7,63.3C180.9,100.1,175.9,102.1,170.7,102z M94.4,31.2l65.8,61.6c5.8,5.7,15.1,5.7,20.9,0.1L247,31.2
		c-1.8-1.4-4-2.1-6.2-2.1H100.6C98.4,29.1,96.2,29.9,94.4,31.2z"/>
	<path d="M155.4,237.9H15.2c-8.4,0-15.2-6.8-15.2-15.2v-96.8c0-8.4,6.8-15.2,15.2-15.2h140.1c8.4,0,15.2,6.8,15.2,15.2v96.8
		C170.6,231.1,163.8,237.9,155.4,237.9z M15.2,115.6c-5.6,0-10.2,4.6-10.2,10.2v96.8c0,5.6,4.6,10.2,10.2,10.2h140.1
		c5.6,0,10.2-4.6,10.2-10.2v-96.8c0-5.6-4.6-10.2-10.2-10.2H15.2z"/>
	<path d="M85.3,188.5c-5.2,0-10.2-2-13.9-5.7L3.7,119.6c-1-0.9-1.1-2.4-0.2-3.4c2.9-3.5,7.2-5.5,11.7-5.5h140.1
		c4.5,0,8.9,2,11.7,5.5c0.8,1,0.7,2.5-0.2,3.4l-67.7,63.3C95.5,186.5,90.5,188.5,85.3,188.5L85.3,188.5z M9,117.7l65.8,61.6
		c2.8,2.8,6.5,4.3,10.5,4.3h0.1c3.9,0,7.6-1.5,10.4-4.2l65.8-61.6c-1.8-1.4-4-2.1-6.2-2.1H15.2C13,115.6,10.8,116.3,9,117.7z"/>
	<path d="M155.4,237.9H15.2c-4.5,0-8.9-2-11.7-5.5c-0.9-1.1-0.7-2.6,0.3-3.5l63-54c1-0.8,2.4-0.8,3.3,0.1l4.7,4.4
		c0.1,0,0.1,0.1,0.1,0.1c5.2,5.7,14,6.1,19.7,1c0.3-0.3,0.7-0.6,1-1c0-0.1,0.1-0.1,0.1-0.1l4.7-4.4c0.9-0.9,2.4-0.9,3.3-0.1l63,54
		c1,0.9,1.2,2.4,0.3,3.5C164.2,235.8,159.9,237.9,155.4,237.9z M9.1,230.9c1.8,1.3,3.9,2,6.1,2h140.1c2.2,0,4.3-0.7,6.1-2
		l-59.2-50.8l-3,2.8c-3.6,3.9-8.7,6.1-14,6.1l0,0c-5.3,0-10.4-2.2-14-6.1l-3-2.8L9.1,230.9z"/>
	<path d="M240.8,151.4h-72.7c-1.4,0-2.5-1.1-2.5-2.5v-23.1c0-5.6-4.6-10.2-10.2-10.2H87.9c-1.4,0-2.5-1.1-2.5-2.5V39.4
		c0-8.4,6.8-15.2,15.2-15.2h140.1c8.4,0,15.2,6.8,15.2,15.2v96.8C256,144.6,249.2,151.4,240.8,151.4z M170.6,146.4h70.2
		c5.6,0,10.2-4.6,10.2-10.2V39.4c0-5.6-4.6-10.2-10.2-10.2H100.6c-5.6,0-10.2,4.6-10.2,10.2v71.3h65c8.4,0,15.2,6.8,15.2,15.2
		L170.6,146.4z"/>
	<path d="M240.8,151.4h-72.7c-1.4,0-2.5-1.1-2.5-2.5v-23.1c0-5.6-4.6-10.2-10.2-10.2h-28.2c-1.4,0-2.5-1.1-2.5-2.5
		c0-0.7,0.3-1.4,0.9-1.9l26.7-22.9c1-0.8,2.4-0.8,3.3,0.1l4.7,4.4c0.1,0,0.1,0.1,0.1,0.1c5.2,5.7,14,6.1,19.7,1c0.3-0.3,0.7-0.6,1-1
		c0,0,0.1-0.1,0.1-0.1l4.7-4.4c0.9-0.9,2.4-0.9,3.3-0.1l63,54c1,0.9,1.2,2.4,0.3,3.5C249.6,149.4,245.3,151.4,240.8,151.4z
		 M170.6,146.4h70.2c2.2,0,4.3-0.7,6.1-2l-59.2-50.8l-3,2.8c-7.1,7.7-19.1,8.2-26.8,1.2c-0.4-0.4-0.8-0.8-1.2-1.2l-3-2.8l-19.9,17
		h21.5c8.4,0,15.2,6.8,15.2,15.2L170.6,146.4z"/>
	<path class="st6" d="M217.1,196.2H183c-1.4,0-2.5-1.1-2.5-2.5s1.1-2.5,2.5-2.5h34.1c1.4,0,2.5,1.1,2.5,2.5S218.5,196.2,217.1,196.2
		z"/>
	<path class="st6" d="M208.6,210.9H183c-1.4,0-2.5-1.1-2.5-2.5s1.1-2.5,2.5-2.5h25.6c1.4,0,2.5,1.1,2.5,2.5S210,210.9,208.6,210.9z"
		/>
	<path class="st6" d="M201.6,166.8H183c-1.4,0-2.5-1.1-2.5-2.5s1.1-2.5,2.5-2.5h18.6c1.4,0,2.5,1.1,2.5,2.5S203,166.8,201.6,166.8z"
		/>
	<path class="st6" d="M208.6,181.5H183c-1.4,0-2.5-1.1-2.5-2.5s1.1-2.5,2.5-2.5h25.6c1.4,0,2.5,1.1,2.5,2.5S210,181.5,208.6,181.5z"
		/>
	<path class="st6" d="M201.6,225.6H183c-1.4,0-2.5-1.1-2.5-2.5s1.1-2.5,2.5-2.5h18.6c1.4,0,2.5,1.1,2.5,2.5S203,225.6,201.6,225.6z"
		/>
	<path class="st6" d="M71.2,70.2H37c-1.4,0-2.5-1.1-2.5-2.5s1.1-2.5,2.5-2.5h34.1c1.4,0,2.5,1.1,2.5,2.5S72.5,70.2,71.2,70.2z"/>
	<path class="st6" d="M71.2,84.9H45.6c-1.4,0-2.5-1.1-2.5-2.5s1.1-2.5,2.5-2.5h25.6c1.4,0,2.5,1.1,2.5,2.5S72.5,84.9,71.2,84.9z"/>
	<path class="st6" d="M71.2,40.8H52.6c-1.4,0-2.5-1.1-2.5-2.5s1.1-2.5,2.5-2.5h18.6c1.4,0,2.5,1.1,2.5,2.5S72.5,40.8,71.2,40.8z"/>
	<path class="st6" d="M71.2,55.5H45.6c-1.4,0-2.5-1.1-2.5-2.5s1.1-2.5,2.5-2.5h25.6c1.4,0,2.5,1.1,2.5,2.5S72.5,55.5,71.2,55.5z"/>
	<path class="st6" d="M71.2,99.6H52.6c-1.4,0-2.5-1.1-2.5-2.5s1.1-2.5,2.5-2.5h18.6c1.4,0,2.5,1.1,2.5,2.5S72.5,99.6,71.2,99.6z"/>
</g>
</svg>
